<svg width="25" height="25" viewBox="0 0 25 25" fill="none" xmlns="http://www.w3.org/2000/svg">
<path d="M12.5629 13.2973C13.1152 13.2973 13.5629 12.8495 13.5629 12.2973C13.5629 11.745 13.1152 11.2973 12.5629 11.2973C12.0106 11.2973 11.5629 11.745 11.5629 12.2973C11.5629 12.8495 12.0106 13.2973 12.5629 13.2973Z" stroke="#E6E7EB" stroke-width="2" stroke-linecap="round" stroke-linejoin="round"/>
<path d="M12.5629 6.29726C13.1152 6.29726 13.5629 5.84954 13.5629 5.29726C13.5629 4.74497 13.1152 4.29726 12.5629 4.29726C12.0106 4.29726 11.5629 4.74497 11.5629 5.29726C11.5629 5.84954 12.0106 6.29726 12.5629 6.29726Z" stroke="#E6E7EB" stroke-width="2" stroke-linecap="round" stroke-linejoin="round"/>
<path d="M12.5629 20.2973C13.1152 20.2973 13.5629 19.8495 13.5629 19.2973C13.5629 18.745 13.1152 18.2973 12.5629 18.2973C12.0106 18.2973 11.5629 18.745 11.5629 19.2973C11.5629 19.8495 12.0106 20.2973 12.5629 20.2973Z" stroke="#E6E7EB" stroke-width="2" stroke-linecap="round" stroke-linejoin="round"/>
</svg>
